<svg id="Capa_1" data-name="Capa 1" xmlns="http://www.w3.org/2000/svg" xmlns:xlink="http://www.w3.org/1999/xlink" viewBox="0 0 74.41 64.61"><defs><style>.cls-1{fill:#fff;}.cls-2{fill:url(#linear-gradient);}.cls-3{fill:url(#linear-gradient-2);}.cls-4{fill:url(#linear-gradient-3);}.cls-5{fill:url(#linear-gradient-4);}.cls-6{fill:url(#linear-gradient-5);}.cls-7{fill:url(#linear-gradient-6);}.cls-8{fill:url(#linear-gradient-7);}.cls-9{fill:url(#linear-gradient-8);}.cls-10{fill:url(#linear-gradient-9);}.cls-11{fill:url(#linear-gradient-10);}.cls-12{fill:url(#linear-gradient-11);}</style><linearGradient id="linear-gradient" x1="0.46" y1="27.63" x2="59.59" y2="27.63" gradientUnits="userSpaceOnUse"><stop offset="0" stop-color="#b8babb"/><stop offset="0.49" stop-color="#fff"/><stop offset="1" stop-color="#b8babb"/></linearGradient><linearGradient id="linear-gradient-2" x1="0.42" y1="10.56" x2="59.6" y2="10.56" gradientUnits="userSpaceOnUse"><stop offset="0" stop-color="#232323"/><stop offset="0.49" stop-color="#376262"/><stop offset="1" stop-color="#232323"/></linearGradient><linearGradient id="linear-gradient-3" x1="16.35" y1="10.55" x2="60.5" y2="10.55" gradientUnits="userSpaceOnUse"><stop offset="0" stop-color="#69bafc"/><stop offset="0.5" stop-color="#71b79c"/><stop offset="1" stop-color="#9bc545"/></linearGradient><linearGradient id="linear-gradient-4" x1="17.15" y1="49.19" x2="73.99" y2="49.19" xlink:href="#linear-gradient-2"/><linearGradient id="linear-gradient-5" x1="17.13" y1="49.21" x2="74.12" y2="49.21" xlink:href="#linear-gradient-2"/><linearGradient id="linear-gradient-6" x1="16.25" y1="49.2" x2="61.47" y2="49.2" xlink:href="#linear-gradient-3"/><linearGradient id="linear-gradient-7" x1="16.26" y1="49.21" x2="61.42" y2="49.21" xlink:href="#linear-gradient-3"/><linearGradient id="linear-gradient-8" x1="17.13" y1="36.46" x2="74.13" y2="36.46" xlink:href="#linear-gradient"/><linearGradient id="linear-gradient-9" x1="33.12" y1="48.94" x2="70.06" y2="48.94" xlink:href="#linear-gradient"/><linearGradient id="linear-gradient-10" x1="33.16" y1="49" x2="69.83" y2="49" xlink:href="#linear-gradient-2"/><linearGradient id="linear-gradient-11" x1="32.58" y1="49.13" x2="74.3" y2="49.13" xlink:href="#linear-gradient-3"/></defs><title>logo</title><path class="cls-1" d="M26.8,6.13c-14.67-1-27,14.73-27,24.68C-.19,40.15,5,43.12,5,43.12H5s-1.65-1.58-1.65-5.43c0-3.15,1.46-6.46,4-9.54,3.75-4.58,9.84-8.66,17-11s7.79-5,7.79-6.54C32.09,7.79,29.62,6.31,26.8,6.13Z" transform="translate(0.19 -6.08)"/><path class="cls-2" d="M20.66,31.53C29.8,22.65,45.42,20,53.5,15.27c2.27-1.34,3.1-1.83,3.33-2.5.64-2-2.2-2.21-2.43-2.22h0c-7.31,0-17.73,5.45-28.29,14.24C18.4,31.18,15.36,37.25,10,37.24c-4.45,0-6.35-3.88-2.71-9.09-2.51,3.08-4,6.39-4,9.54,0,3.85,1.61,5.39,1.65,5.43a9.25,9.25,0,0,0,5.5,1.59,13.14,13.14,0,0,0,6-1.34A10.84,10.84,0,0,1,16.25,41,13.32,13.32,0,0,1,20.66,31.53Z" transform="translate(0.19 -6.08)"/><path class="cls-3" d="M54.47,10.55l.5,0Z" transform="translate(0.19 -6.08)"/><path class="cls-4" d="M54.39,10.54h0Z" transform="translate(0.19 -6.08)"/><path class="cls-5" d="M25.21,49.19h0Z" transform="translate(0.19 -6.08)"/><path class="cls-6" d="M26.26,49.22h0Z" transform="translate(0.19 -6.08)"/><path class="cls-7" d="M25.88,49.21l-.67,0Z" transform="translate(0.19 -6.08)"/><path class="cls-8" d="M26.75,49.21h0Z" transform="translate(0.19 -6.08)"/><path class="cls-1" d="M55,10.57l-.5,0H54.4c.23,0,3.07.25,2.43,2.22-.23.67-1.06,1.16-3.33,2.5C45.42,20,29.8,22.65,20.66,31.53A13.32,13.32,0,0,0,16.25,41a10.84,10.84,0,0,0,.25,2.35,6.94,6.94,0,0,0,1.09,2.57c1.89,2.65,5.13,3.15,7.57,3.25h.05l.67,0h.85c-.27-.05-4.21-.76-5.5-3.77a4.26,4.26,0,0,1-.35-1.65c0-1.62,1.1-3.36,3.15-5.17,4-3.52,11.54-7.3,21.53-11,14.22-5.26,15-8.41,15-11.57A5.6,5.6,0,0,0,55,10.57Z" transform="translate(0.19 -6.08)"/><path class="cls-9" d="M38.39,41.27c5.75-4.53,18.51-7.35,24.48-10.07,10.22-4.67,6.66-7.36,5.29-7.49h-.1c-10.48,0-27.28,19-41.43,19-2.95,0-4.11-2.1-2.6-4.05-2.05,1.81-3.15,3.55-3.15,5.17a4.26,4.26,0,0,0,.35,1.65c1.29,3,5.23,3.72,5.5,3.77a25.68,25.68,0,0,0,6.69-1.05A14.49,14.49,0,0,1,38.39,41.27Z" transform="translate(0.19 -6.08)"/><path class="cls-10" d="M38.44,49.25c-1.77,1.37-2.8,2.9-2.8,4.7a4.33,4.33,0,0,0,1.72,3.33,11.07,11.07,0,0,0,4,.62,44.79,44.79,0,0,0,14.58-3.08A17.27,17.27,0,0,1,61,48.25c6.34-5.31,7.06-6.17,7.06-7A1.33,1.33,0,0,0,67.15,40a3.38,3.38,0,0,0-2.15.52C60.26,43.6,53.61,53.78,41,53.78,38.15,53.78,35.85,51.34,38.44,49.25Z" transform="translate(0.19 -6.08)"/><path class="cls-11" d="M38.79,49l0,0Z" transform="translate(0.19 -6.08)"/><path class="cls-1" d="M67.15,40h0A1.33,1.33,0,0,1,68,41.2c0,.88-.72,1.74-7.06,7a17.27,17.27,0,0,0-5.07,6.57,16.15,16.15,0,0,0-1.16,6.34c0,6,3.16,9.53,6.58,9.53a3.17,3.17,0,0,0,2.77-4.54c-1.64-3.37-2.84-6-2.84-8.84,0-6.76,8.6-9.74,8.87-13.61A3.24,3.24,0,0,0,67.15,40Z" transform="translate(0.19 -6.08)"/><path class="cls-12" d="M38.44,49.25l.31-.24h0A2.37,2.37,0,0,0,38.44,49.25Z" transform="translate(0.19 -6.08)"/><path class="cls-1" d="M68.12,23.71h0c1.37.13,4.93,2.82-5.29,7.49-6,2.72-18.73,5.54-24.48,10.07a14.49,14.49,0,0,0-5,6.89A9,9,0,0,0,33,50.74a6.64,6.64,0,0,0,4.4,6.57l0,0A4.33,4.33,0,0,1,35.64,54c0-1.8,1-3.33,2.8-4.7a2.37,2.37,0,0,1,.3-.23h0l0,0c5.9-4.3,19-7.08,29.62-12,5.74-2.66,5.81-6.5,5.81-7.52C74.22,25.7,72.34,23.55,68.12,23.71Z" transform="translate(0.19 -6.08)"/></svg>